<?xml version="1.0" encoding="UTF-8" standalone="no"?>
<svg
   xmlns:dc="http://purl.org/dc/elements/1.1/"
   xmlns:cc="http://creativecommons.org/ns#"
   xmlns:rdf="http://www.w3.org/1999/02/22-rdf-syntax-ns#"
   xmlns:svg="http://www.w3.org/2000/svg"
   xmlns="http://www.w3.org/2000/svg"
   id="svg2114"
   version="1.1"
   viewBox="0 0 105.83326 26.99119"
   height="102.01395"
   width="399.99973">
  <defs
     id="defs2108" />
  <metadata
     id="metadata2111">
    <rdf:RDF>
      <cc:Work
         rdf:about="">
        <dc:format>image/svg+xml</dc:format>
        <dc:type
           rdf:resource="http://purl.org/dc/dcmitype/StillImage" />
        <dc:title></dc:title>
      </cc:Work>
    </rdf:RDF>
  </metadata>
  <g
     transform="translate(0,-270.00878)"
     id="layer1">
    <path
       style="fill:#172851;fill-opacity:1;fill-rule:nonzero;stroke:none;stroke-width:1.77801692"
       d="M 18.009356,270.00878 0,296.70682 h 3.9658171 l 5.5007384,-8.16085 h 8.5636415 v 8.16085 H 21.3223 v -26.69804 z m 0.02066,5.84106 v 9.7027 h -6.535611 z m 0,0"
       id="path1233" />
    <path
       style="fill:#172851;fill-opacity:1;fill-rule:nonzero;stroke:none;stroke-width:1.77801692"
       d="m 24.801949,296.70682 h 3.285154 v -26.69804 h -3.285154 z m 0,0"
       id="path1235" />
    <path
       style="fill:#172851;fill-opacity:1;fill-rule:nonzero;stroke:none;stroke-width:1.77801692"
       d="m 35.074162,276.78049 -6.987059,9.9736 7.507963,9.95273 h 4.111666 l -7.737149,-10.27222 6.750897,-9.65411 z m 0,0"
       id="path1237" />
    <path
       style="fill:#a61c38;fill-opacity:1;fill-rule:nonzero;stroke:none;stroke-width:1.77801692"
       d="m 49.117721,275.7873 -0.340355,0.0202 -0.354214,0.0403 -0.340304,0.0202 -0.36117,0.0696 -0.333399,0.0554 -0.340355,0.0695 -0.333399,0.0832 -0.680643,0.20816 -0.3334,0.12499 -0.319488,0.13205 -0.333399,0.14566 -0.319489,0.14565 -0.291718,0.14566 -0.319489,0.19455 -0.291718,0.16682 -0.298622,0.18749 -0.291718,0.21521 -0.277808,0.20816 -0.270852,0.20815 -0.277807,0.23638 -0.250037,0.22932 -0.256992,0.24999 -0.458393,0.51393 -0.236126,0.27116 -0.208355,0.27065 -0.215311,0.29887 -0.18754,0.27065 -0.187541,0.29888 -0.194495,0.31248 -0.166624,0.29837 -0.145809,0.31954 -0.152713,0.31248 -0.145809,0.34021 -0.124993,0.31248 -0.208355,0.68066 -0.09032,0.33314 -0.08336,0.33315 -0.0626,0.3402 -0.0624,0.36138 -0.04183,0.33314 -0.04183,0.36137 -0.02067,0.33315 -0.02066,0.36137 v 0.36137 l 0.02066,0.33315 0.02067,0.36137 0.02066,0.34021 0.04183,0.35431 0.0624,0.3402 0.0626,0.35432 0.08336,0.3402 0.111133,0.34021 0.08336,0.33314 0.124993,0.31954 0.124994,0.33315 0.124993,0.31954 0.152713,0.31248 0.145809,0.31954 0.166624,0.31954 0.194445,0.29182 0.166573,0.29887 0.208356,0.29182 0.194445,0.29888 0.229221,0.27065 0.208356,0.27065 0.236126,0.25704 0.507019,0.50703 0.250037,0.22932 0.256992,0.23638 0.270902,0.22932 0.270852,0.20816 0.298674,0.19454 0.298673,0.18749 0.291718,0.18749 0.319489,0.17338 0.291718,0.16683 0.319488,0.14565 0.333399,0.15272 0.319489,0.12499 0.333399,0.12499 0.319489,0.10433 0.333399,0.10433 0.36117,0.0832 0.340304,0.0625 0.333399,0.0625 0.36117,0.0696 0.340304,0.0403 0.354214,0.0202 0.340304,0.0202 h 0.694529 l 0.36117,-0.0202 0.354214,-0.0202 0.340304,-0.0403 0.354215,-0.0403 0.340304,-0.0696 0.340354,-0.0832 0.3334,-0.0832 0.340304,-0.0832 0.333399,-0.10433 0.340354,-0.12499 0.312534,-0.13205 0.340354,-0.14566 0.319489,-0.14565 0.291718,-0.14566 0.319488,-0.19455 0.291718,-0.16682 v -4.32699 l -0.166573,0.21521 -0.215311,0.20816 -0.18754,0.19454 -0.208356,0.18749 -0.215311,0.18749 -0.208355,0.17338 -0.229171,0.16683 -0.236127,0.14565 -0.229221,0.14566 -0.256992,0.15272 -0.229221,0.12499 -0.250037,0.12499 -0.277808,0.10433 -0.250036,0.0832 -0.277808,0.10433 -0.250037,0.0695 -0.277807,0.0832 -0.270903,0.0403 -0.277807,0.0625 -0.270852,0.0202 -0.298673,0.0403 h -0.270853 l -0.277807,0.0202 -0.270903,-0.0202 H 48.8812 l -0.270852,-0.0403 -0.277807,-0.0403 -0.270853,-0.0403 -0.270902,-0.0625 -0.277808,-0.0625 -0.256992,-0.0832 -0.270852,-0.0902 -0.250037,-0.10433 -0.277807,-0.10433 -0.250037,-0.10433 -0.236126,-0.12499 -0.250037,-0.15271 -0.229221,-0.14566 -0.236126,-0.14566 13.098988,-11.7863 -0.18754,-0.29837 -0.215311,-0.29182 -0.208355,-0.27771 -0.236127,-0.2777 -0.229221,-0.24999 -0.256992,-0.24999 -0.229221,-0.25704 -0.277808,-0.22932 -0.250037,-0.22932 -0.277807,-0.21521 -0.270903,-0.20816 -0.291718,-0.21521 -0.298673,-0.18749 -0.291718,-0.18749 -0.319488,-0.17338 -0.298674,-0.16682 -0.312533,-0.14566 -0.333399,-0.12499 -0.319489,-0.15272 -0.340304,-0.10432 -0.312533,-0.125 -0.340355,-0.0832 -0.354214,-0.0832 -0.340304,-0.0902 -0.340304,-0.0554 -0.354215,-0.0504 -0.340304,-0.0403 -0.354214,-0.0403 -0.340355,-0.0202 z m -6.202223,13.91854 -0.104178,-0.24999 -0.124993,-0.24998 -0.08336,-0.25704 -0.111133,-0.25705 -0.08336,-0.27065 -0.0626,-0.2777 -0.0624,-0.24999 -0.04183,-0.27065 -0.04183,-0.27771 -0.04183,-0.27065 -0.02066,-0.29887 v -0.54866 l 0.02066,-0.27116 0.02066,-0.2777 0.02066,-0.27065 0.04183,-0.27771 0.0626,-0.27065 0.0624,-0.27771 0.0626,-0.27065 0.08336,-0.25704 0.111133,-0.24999 0.104178,-0.2777 0.104177,-0.24999 0.124994,-0.22932 0.124993,-0.25704 0.152713,-0.22933 0.145809,-0.23638 0.333399,-0.45814 0.17373,-0.21521 0.187541,-0.20815 0.381985,-0.38204 0.416711,-0.37497 0.215311,-0.17338 0.229221,-0.14566 0.236126,-0.14566 0.229222,-0.15271 0.250037,-0.14566 0.256992,-0.12499 0.229221,-0.10433 0.277807,-0.10433 0.250037,-0.11138 0.256992,-0.0832 0.54173,-0.12499 0.277807,-0.0625 0.277808,-0.0403 0.270902,-0.0403 0.270852,-0.0202 0.277808,-0.0202 h 0.54868 l 0.270902,0.0202 0.277808,0.0403 0.291718,0.0202 0.256992,0.0625 0.270902,0.0403 0.277808,0.0832 0.270852,0.0625 0.256992,0.11138 0.250037,0.0832 0.256992,0.125 0.250036,0.10433 0.250037,0.12499 0.236126,0.15271 0.250037,0.14566 0.236126,0.14566 -10.612536,9.55684 z m 0,0"
       id="path1239" />
    <path
       style="fill:#172851;fill-opacity:1;fill-rule:nonzero;stroke:none;stroke-width:1.77801692"
       d="m 60.487302,270.00878 -0.0071,26.69804 h 3.292104 v -26.69804 z m 0,0"
       id="path1241" />
    <path
       style="fill:#172851;fill-opacity:1;fill-rule:nonzero;stroke:none;stroke-width:1.77801692"
       d="m 67.189588,296.70682 h 3.292109 v -19.92633 h -3.292109 z m 0,0"
       id="path1243" />
    <path
       style="fill:#172851;fill-opacity:1;fill-rule:nonzero;stroke:none;stroke-width:1.77801692"
       d="m 67.189588,274.29408 h 3.292109 v -4.2853 h -3.292109 z m 0,0"
       id="path1245" />
    <path
       style="fill:#172851;fill-opacity:1;fill-rule:nonzero;stroke:none;stroke-width:1.77801692"
       d="m 87.108926,276.78049 v 12.42528 l -0.02066,0.22932 -0.02066,0.20815 -0.04183,0.20816 -0.04183,0.21521 -0.04838,0.20815 -0.0626,0.19455 -0.0624,0.20815 -0.08336,0.20816 -0.08341,0.19454 -0.208356,0.37498 -0.104178,0.19455 -0.111133,0.16682 -0.145808,0.18749 -0.124994,0.14566 -0.145808,0.17388 -0.152714,0.16683 -0.145808,0.14565 -0.166624,0.13205 -0.173731,0.14566 -0.166624,0.12499 -0.166624,0.10433 -0.194445,0.125 -0.18754,0.11088 -0.18754,0.0832 -0.215311,0.0832 -0.18754,0.0832 -0.208356,0.0625 -0.21531,0.0625 -0.187541,0.0403 -0.208355,0.0403 -0.236126,0.0403 -0.208356,0.0302 -0.215311,0.0202 h -0.416711 l -0.208356,-0.0202 -0.236176,-0.0302 -0.208356,-0.0403 -0.215311,-0.0403 -0.208355,-0.0403 -0.18749,-0.0625 -0.215311,-0.0625 -0.208355,-0.0832 -0.18749,-0.0832 -0.194496,-0.0832 -0.18754,-0.11088 -0.18754,-0.125 -0.173529,-0.10433 -0.166573,-0.12499 -0.166624,-0.14566 -0.166574,-0.13205 -0.152713,-0.14565 -0.145809,-0.16683 -0.145809,-0.17388 -0.152713,-0.14566 -0.124993,-0.18749 -0.104178,-0.16682 -0.124993,-0.19455 -0.08336,-0.18749 -0.104177,-0.18749 -0.09032,-0.19454 -0.08336,-0.20816 -0.0626,-0.20815 -0.0626,-0.19455 -0.04183,-0.20815 -0.04183,-0.21521 -0.04183,-0.20816 -0.02066,-0.20815 -0.02066,-0.22932 v -12.42528 h -3.292104 v 12.88372 l 0.02066,0.29837 0.02066,0.27065 0.04183,0.29888 0.04183,0.27065 0.0626,0.2777 0.0626,0.27065 0.08336,0.27065 0.09032,0.27771 0.104178,0.24999 0.104178,0.2777 0.124993,0.24999 0.131949,0.25704 0.124993,0.24999 0.145808,0.25704 0.145809,0.22932 0.173529,0.23638 0.166573,0.20816 0.187541,0.22932 0.194495,0.21521 0.18749,0.20815 0.208355,0.18749 0.215311,0.19455 0.208356,0.18749 0.229221,0.16682 0.236126,0.16683 0.229222,0.15271 0.236126,0.14566 0.250037,0.14566 0.250037,0.13205 0.256992,0.12499 0.270902,0.10433 0.256992,0.0832 0.270852,0.10433 0.277808,0.0902 0.270852,0.0554 0.277807,0.0695 0.270903,0.0403 0.298673,0.0403 0.270852,0.0202 0.298674,0.0202 h 0.840397 l 0.270853,-0.0403 0.298673,-0.0202 0.277807,-0.0403 0.541745,-0.12499 0.277807,-0.0902 0.270853,-0.0832 0.277807,-0.0832 0.250037,-0.10433 0.256992,-0.12499 0.250037,-0.125 0.256992,-0.13205 0.250036,-0.14565 0.236127,-0.14566 0.229221,-0.17388 0.229171,-0.16683 0.215311,-0.18749 0.229171,-0.17338 0.18754,-0.20815 0.215311,-0.18749 v 2.06279 h 3.285163 v -19.92633 z m 0,0"
       id="path1247" />
    <path
       style="fill:#172851;fill-opacity:1;fill-rule:nonzero;stroke:none;stroke-width:1.77801692"
       d="m 99.49255,275.7873 -0.236378,0.0202 -0.229322,0.0202 -0.229323,0.0403 -0.236378,0.0403 -0.229322,0.0403 -0.229322,0.0625 -0.21521,0.0902 -0.229322,0.0625 -0.21521,0.10433 -0.208154,0.0832 -0.21521,0.10433 -0.18749,0.12499 -0.208154,0.13205 -0.194546,0.12499 -0.18749,0.12499 -0.18749,0.14566 -0.166825,0.17338 -0.173882,0.14566 -0.166825,0.16682 -0.145658,0.19455 -0.152713,0.16682 -0.145658,0.18749 -0.124993,0.18749 -0.124993,0.21521 -0.111385,0.18749 -0.124993,0.20816 -0.08316,0.21521 -0.104329,0.20815 -0.0625,0.23638 -0.08316,0.20815 -0.06955,0.23638 -0.03528,0.22932 -0.04032,0.22933 -0.04032,0.23637 -0.03024,0.22933 -0.02016,0.22932 v 0.4652 l 0.02016,0.23637 0.03024,0.22933 0.02016,0.22932 0.03528,0.23638 0.0625,0.22932 0.0504,0.21521 0.08316,0.22932 0.08316,0.20815 0.08316,0.23638 0.08316,0.20816 0.110881,0.20815 0.124993,0.19455 0.124993,0.20815 0.124993,0.19455 0.124993,0.18749 0.152714,0.18749 0.166825,0.17337 0.145658,0.16683 0.166825,0.16682 0.173882,0.14566 0.18749,0.15272 0.194546,0.14565 0.374979,0.24999 0.21521,0.12499 0.208154,0.11139 0.208154,0.0832 0.208154,0.10433 0.21521,0.0832 0.229322,0.0625 2.278099,0.72229 0.15272,0.0625 0.14565,0.0403 0.14566,0.0625 0.14566,0.0832 0.13205,0.0832 0.14565,0.0832 0.125,0.0832 0.12499,0.11088 0.12499,0.10433 0.11139,0.12499 0.10433,0.10433 0.10433,0.125 0.0832,0.13205 0.10433,0.14565 0.0625,0.125 0.0902,0.14565 0.0625,0.15272 0.0625,0.14565 0.0403,0.14566 0.0403,0.16683 0.0403,0.15271 0.0202,0.16683 0.0202,0.14565 0.0202,0.17389 v 0.31248 l -0.0202,0.16682 -0.0202,0.15272 -0.0403,0.16682 -0.0202,0.14566 -0.0625,0.14566 -0.0403,0.17338 -0.0625,0.14565 -0.0696,0.14566 -0.0832,0.12499 -0.0832,0.15272 -0.0832,0.12499 -0.20816,0.24999 -0.10433,0.11138 -0.13205,0.12499 -0.10433,0.10433 -0.12499,0.0832 -0.14566,0.10433 -0.13205,0.0832 -0.14565,0.0902 -0.29182,0.12499 -0.15272,0.0625 -0.29181,0.0832 -0.166829,0.0202 -0.152713,0.0202 -0.333147,0.0403 -0.145658,-0.0202 h -0.173881 l -0.145658,-0.0202 -0.166825,-0.0202 -0.145658,-0.0403 -0.173881,-0.0403 -0.145658,-0.0403 -0.145657,-0.0625 -0.152713,-0.0625 -0.145658,-0.0625 -0.124993,-0.0902 -0.145657,-0.0832 -0.13205,-0.0832 -0.249986,-0.20815 -0.104329,-0.125 -0.104329,-0.11138 -0.110881,-0.12499 -0.104329,-0.125 -0.08316,-0.12499 -0.08316,-0.15271 -0.0625,-0.14566 -0.08316,-0.14566 -0.0625,-0.14566 -0.0504,-0.15271 -0.03528,-0.14566 -0.0504,-0.16682 -0.01512,-0.15272 -0.0252,-0.16682 -0.02016,-0.14566 v -0.16682 h -3.285204 v 0.24998 l 0.02016,0.25705 0.02016,0.24998 0.04032,0.24999 0.04032,0.25704 0.0625,0.24999 0.0625,0.23637 0.0625,0.24999 0.08316,0.23588 0.08366,0.22932 0.110881,0.22932 0.124993,0.23587 0.104329,0.22933 0.124993,0.21521 0.152714,0.20815 0.145657,0.21521 0.145658,0.2016 0.166825,0.19455 0.173882,0.18749 0.166825,0.17338 0.18749,0.18749 0.194546,0.16682 0.18749,0.15271 0.208154,0.14566 0.21521,0.14566 0.208154,0.14566 0.208154,0.12499 0.235874,0.11138 0.458644,0.20816 0.236379,0.0832 0.249986,0.0832 0.235874,0.0832 0.249987,0.0625 0.257042,0.0504 0.229322,0.0403 0.257043,0.0403 0.249986,0.0202 h 0.757015 l 0.257043,-0.0202 0.249984,-0.0202 0.25704,-0.0403 0.24999,-0.0403 0.24999,-0.0695 0.23587,-0.0555 0.24999,-0.0902 0.23637,-0.0832 0.22933,-0.0832 0.23587,-0.10433 0.22932,-0.125 0.22932,-0.10432 0.21521,-0.15272 0.20816,-0.12499 0.20815,-0.14566 0.19455,-0.17388 0.18749,-0.14566 0.18749,-0.16682 0.19454,-0.19455 0.33366,-0.37498 0.14565,-0.18749 0.15272,-0.21521 0.14565,-0.20815 0.125,-0.20816 0.13205,-0.23637 0.12499,-0.20816 0.10433,-0.23587 0.10433,-0.22933 0.0832,-0.25704 0.0625,-0.22932 0.0832,-0.25704 0.0625,-0.22932 0.0504,-0.24999 0.0403,-0.25704 0.0403,-0.49998 0.0202,-0.25704 v -0.24998 l -0.0202,-0.25705 -0.0202,-0.24998 -0.0202,-0.25705 -0.0403,-0.24998 -0.0504,-0.24999 -0.0625,-0.23638 -0.0832,-0.25704 -0.0625,-0.22932 -0.0832,-0.25704 -0.20816,-0.45814 -0.12499,-0.21521 -0.13205,-0.22933 -0.12499,-0.20865 -0.14566,-0.21521 -0.15271,-0.20816 -0.14566,-0.18749 -0.16683,-0.19454 -0.16682,-0.18749 -0.19455,-0.16683 -0.18749,-0.19455 -0.18749,-0.14565 -0.19454,-0.16683 -0.20816,-0.14566 -0.20815,-0.13205 -0.21521,-0.12499 -0.45865,-0.24998 -0.23587,-0.10433 -0.22932,-0.0902 -2.868442,-1.09047 -0.124993,-0.0625 -0.13205,-0.0695 -0.104329,-0.0625 -0.124993,-0.0625 -0.104329,-0.0832 -0.111385,-0.0832 -0.104329,-0.0832 -0.08316,-0.11139 -0.104329,-0.10432 -0.08316,-0.10433 -0.0625,-0.10433 -0.09022,-0.10433 -0.0625,-0.13205 -0.0625,-0.12499 -0.166826,-0.49998 -0.02016,-0.15271 -0.02016,-0.12499 v -0.4027 l 0.02016,-0.14566 0.04032,-0.24999 0.04032,-0.15271 0.04032,-0.12499 0.0625,-0.125 0.04032,-0.11088 0.06955,-0.12499 0.08316,-0.12499 0.0625,-0.10433 0.08316,-0.10433 0.104329,-0.10433 0.08316,-0.0902 0.111385,-0.10433 0.208154,-0.16682 0.104329,-0.0625 0.124993,-0.0625 0.132049,-0.0625 0.124993,-0.0695 0.124994,-0.0353 0.124993,-0.0504 0.124993,-0.0403 0.132049,-0.0202 0.145658,-0.0202 h 0.402699 l 0.145657,0.0202 0.24999,0.0403 0.14565,0.0403 0.13205,0.0504 0.125,0.0403 0.12499,0.0625 0.10433,0.0625 0.12499,0.0625 0.11088,0.0832 0.20816,0.16682 0.10433,0.0902 0.0832,0.10433 0.0902,0.10433 0.16683,0.20815 0.0625,0.13205 0.12499,0.24999 0.0832,0.24998 0.0202,0.13205 0.0403,0.125 0.0202,0.14565 v 0.27771 h 3.22961 l -0.0202,-0.25704 -0.0202,-0.22933 -0.0202,-0.23637 -0.0403,-0.20816 -0.0625,-0.23638 -0.0625,-0.22932 -0.0625,-0.20815 -0.0902,-0.23638 -0.0832,-0.20815 -0.10432,-0.20816 -0.10433,-0.21521 -0.13205,-0.20815 -0.0973,-0.19455 -0.15271,-0.18749 -0.12499,-0.18749 -0.14566,-0.18749 -0.16682,-0.17388 -0.15272,-0.16682 -0.16682,-0.16683 -0.19455,-0.14566 -0.16683,-0.15271 -0.18749,-0.14566 -0.18748,-0.12499 -0.21521,-0.13205 -0.18749,-0.10433 -0.21521,-0.10433 -0.20816,-0.10433 -0.20815,-0.0832 -0.23638,-0.0832 -0.20815,-0.0902 -0.22933,-0.0625 -0.23587,-0.0403 -0.22932,-0.0403 -0.23588,-0.0403 -0.458642,-0.0403 z m 0,0"
       id="path1249" />
  </g>
</svg>
